<svg xmlns="http://www.w3.org/2000/svg" width="355" height="765" viewBox="0 0 355 765" fill="none"><g clip-path="url(#clip0_166_868)"><path d="M286.7 394.999C279.7 396.499 273 398.099 266.5 400.099C266.4 399.699 266.2 399.299 266.1 398.899C256.7 369.799 231.4 345.999 228.7 315.699C226.7 293.799 218.6 286.299 212.4 270.699C211.3 267.899 210.3 264.999 209.4 262.099C205.7 249.699 203.8 236.499 200 224.699L241.5 237.099C255.6 240.399 257.4 294.099 267.1 311.699C280.8 336.699 277.8 368.199 286.7 394.999Z" fill="#E8A273"></path><path d="M266.6 400C266.5 399.6 266.3 399.3 266.1 398.9C256.7 369.8 231.4 346 228.7 315.7C226.7 293.8 218.6 286.3 212.4 270.7C211.3 267.9 210.3 265 209.4 262.1L225.6 258C229.6 261.3 229.8 278.4 230.5 285.3C231.4 294.3 231 302.5 231.6 311.5C232.7 329 243.3 346.1 251.4 361.8C257.2 373.1 266.6 387.5 266.6 400Z" fill="#C87E53"></path><path d="M230.3 304.9C230.3 305.6 230.3 306.4 230.2 307.1C233.6 309.3 237.9 311 240.5 310.1C244.6 308.6 247.2 299.4 248.1 295.1C243.2 302.4 237.6 306.7 230.3 304.9Z" fill="#C87E53"></path><path d="M291.4 424.1C288.9 429.8 283.5 436 280.4 439.6C276 440.4 274.2 441.2 270.5 438.2C268.3 436.5 266.7 433.5 265 431.3C262.8 428.5 262.8 428.8 263.8 426C264.1 425.1 264.5 424.2 264.9 423.3C265.5 421.9 266.2 420.6 266.9 419.3C268.6 415.9 270.1 412.5 270.1 408.4C270.1 405.3 270 402.7 271.2 400C271.7 398.9 272.5 397.9 273.3 396.9C274.1 395.8 274.9 394.8 275.3 393.5L286.3 393.6C288.4 399.5 291.7 411 292.7 417.8C292.9 419.6 292.4 421.8 291.4 424.1Z" fill="#E8A273"></path><path d="M266.4 419.301L275.7 457.401L255.2 456.201L260 420.301L266.4 419.301Z" fill="#DD3514"></path><path d="M341.3 466H210.9C207.7 466 205.1 463.4 205.1 460.2C205.1 457 207.7 454.4 210.9 454.4H341.3" fill="#FF4817"></path><path d="M334.9 561.799H215.3C212.2 561.799 209.6 559.599 209 556.599C208.9 556.199 208.9 555.799 208.9 555.399V546.599C208.9 546.199 208.9 545.799 209 545.399C209.6 542.399 212.2 540.199 215.3 540.199H334.9" fill="#343B3F"></path><path d="M334.9 480.599C334.9 483.799 328 489.199 321.7 493.099H209.7C203.7 489.399 196.8 483.899 196.8 480.599V468.199C196.8 467.999 196.8 467.799 196.8 467.699C197 462.699 199.8 458.699 203.2 458.699H328.5" fill="#1C262B"></path><path d="M323.3 484V561.8H215.3C212.2 561.8 209.6 559.6 209 556.6V484H323.3Z" fill="#1C262B"></path><path d="M343.6 554.7H251.1V484H343.6" fill="#343B3F"></path><path d="M343.8 493H251.1C246.1 489.3 240.4 483.8 240.4 480.5V468.1C240.4 467.9 240.4 467.7 240.4 467.6C240.6 462.6 242.9 458.6 245.7 458.6H349.4" fill="#444C51"></path><path d="M354.8 473.399H240.4V468.199C240.4 467.999 240.4 467.799 240.4 467.699H354.7" fill="#1C262B"></path><path d="M338.3 561.799H256C253.1 561.799 250.7 558.899 250.7 555.399V546.599C250.7 545.799 250.8 544.999 251.1 544.299C251.9 541.899 253.8 540.199 256.1 540.199H343.7" fill="#343B3F"></path><path d="M228.7 465.4H212.4V484.7H228.7V465.4Z" fill="#FF4817"></path><path d="M227 465.4H221.2V484.7H227V465.4Z" fill="#343B3F"></path><path d="M291.4 424.1C288.9 429.8 283.5 436 280.4 439.6C276 440.4 274.2 441.2 270.5 438.2C268.3 436.5 266.7 433.5 265 431.3C262.8 428.5 262.8 428.8 263.8 426C264.1 425.1 264.5 424.2 264.9 423.3C265.7 422.9 266.7 422.7 267.8 422.6C269.8 422.5 271.6 422.4 273.6 421.8C275.7 421.2 277.4 419.8 279.6 420.2C281.2 420.5 283.1 421.9 284.9 422.4C286.8 422.9 288.8 423.8 290.7 424.1C290.9 424 291.2 424.1 291.4 424.1Z" fill="#C87E53"></path><path d="M279.7 417.4L291.7 457.6L272 458.1L274.3 423.6L279.7 417.4Z" fill="#FF4817"></path><path d="M280 423C280 424.4 278.3 425.5 276.1 425.5H266.4C264.3 425.5 262.5 424.4 262.5 423V417.9C262.5 416.5 264.2 415.4 266.4 415.4H276.1C278.2 415.4 280 416.5 280 417.9V423Z" fill="#FF4817"></path><path d="M272.9 413.4C270.2 416.5 266.6 419.7 263.3 421.5C262.9 421.7 262.5 422 262.2 422.3C259.7 424.7 261.2 428.7 258.6 430.9C254.6 434.2 254.5 425.1 254.8 423C255 421.5 255.4 419.7 256 417.8C257.3 413.7 259.3 409.2 261.1 406.3C263 403.2 269.8 394.5 269.8 394.5C272.9 395.3 277.3 401 277.9 404.5C278.5 408.5 275.5 410.5 272.9 413.4Z" fill="#E8A273"></path><path d="M258.6 430.901C254.6 434.201 254.5 425.101 254.8 423.001C255 421.501 255.4 419.701 256 417.801C256.5 418.801 257.3 419.801 258.6 420.701C259.7 421.501 260.9 422.001 262.3 422.401C259.8 424.701 261.2 428.801 258.6 430.901Z" fill="#C87E53"></path><path d="M72.2002 251.699C72.0002 252.199 71.8002 252.699 71.6002 253.199C68.0002 263.499 62.3002 271.799 57.4002 281.199C52.2002 291.099 59.7002 306.399 60.7002 316.999C62.3002 333.299 57.1002 347.399 58.0002 363.999C58.2002 368.199 58.6002 372.199 59.1002 376.199C60.5002 386.699 62.8002 396.399 65.5002 405.699L42.7002 404.999C42.4002 405.499 22.4002 353.399 20.3002 328.999C19.3002 316.999 18.7002 312.899 18.7002 301.099C18.7002 296.999 19.6002 291.799 20.8002 286.999C21.2002 285.399 21.6002 283.899 22.0002 282.599C22.2002 281.799 22.5002 281.099 22.7002 280.399C24.4002 274.999 24.9002 270.899 25.8002 264.899C28.7002 245.799 36.5002 218.199 50.9002 203.699C58.4002 206.699 73.6002 212.399 78.1002 220.199C82.4002 227.599 75.6002 242.699 72.2002 251.699Z" fill="#E8A273"></path><path d="M57.5004 281.199C52.3004 291.099 59.8004 306.399 60.8004 316.999C62.4004 333.299 57.2004 347.399 58.1004 363.999C58.3004 368.199 58.7004 372.199 59.2004 376.199C59.2004 375.999 59.1004 375.899 59.1004 375.699C56.5004 364.899 56.2004 353.199 56.2004 341.399C56.2004 328.399 53.7004 317.999 51.1004 305.699C48.8004 294.799 47.6004 282.599 51.3004 271.599C55.4004 259.299 63.7004 246.899 66.4004 234.299L72.2004 251.699C72.0004 252.199 71.8004 252.699 71.6004 253.199C68.0004 263.499 62.4004 271.799 57.5004 281.199Z" fill="#C87E53"></path><path d="M34.4003 283.599C31.1003 286.899 25.6003 287.599 20.8003 287.099C21.2003 285.499 21.6003 283.999 22.0003 282.699C25.7003 284.399 30.0003 284.399 34.4003 283.599Z" fill="#C87E53"></path><path d="M34.4004 283.498C34.4004 283.598 34.4004 283.598 34.4004 283.498C34.5004 283.598 34.4004 283.598 34.4004 283.498C34.7004 283.398 34.7004 283.298 34.4004 283.498Z" fill="#C87E53"></path><path d="M228.3 219.4C227.8 222.6 227.1 225.8 226.1 228.9C225.3 231.7 224.3 234.4 223 237.2C221.7 240.1 220.1 243 218.3 245.9C211.2 256.9 211.7 295.2 210.8 325.4C210.8 325.5 210.8 325.7 210.8 325.8C210.8 327.3 210.7 328.7 210.7 330.1C210.5 334.9 210.3 339.4 210 343.5C210 344 209.9 344.4 209.9 344.9C209.8 345.7 209.8 346.5 209.7 347.3C209.5 348.9 209.4 350.5 209.1 352C208.1 359.4 206.4 364.2 203.8 364.8C199.9 365.6 196.4 366.7 193 367.9C185.3 370.5 178.1 373.4 169.1 373.9C168.4 373.9 167.7 374 167 374C153 374.8 140.6 375.7 127.3 374.9C124.2 374.7 121 374.4 117.7 373.9C116.7 373.8 115.6 373.5 114.5 373.3C104.8 370.8 93.0997 363.1 85.6997 356.9C82.5997 354.3 82.2997 349.5 82.9997 344.2C82.9997 344.1 82.9997 344 82.9997 343.9C82.9997 343.9 82.9997 343.9 82.9997 343.8C83.0997 342.9 83.1997 342.1 83.3997 341.2C84.1997 336.5 85.3997 331.7 85.7997 327.7C85.8997 326.7 85.9997 325.7 85.9997 324.8C85.9997 298.7 71.9997 267 67.2997 241.6C66.3997 236.6 65.0997 230.6 63.6997 224.6C61.7997 216.7 59.5997 208.6 57.2997 202.4C42.2997 162.4 77.8997 153 97.6997 148.9C104.6 147.5 109.6 146.7 109.8 145.5C109.8 145.5 110 145.5 110.3 145.5C116.5 146 184.4 151.3 189.1 153C189.7 153.2 190.3 153.4 190.8 153.6C197.3 156 203.3 158.7 208.3 161.2C209.7 161.9 210.9 162.5 212.1 163.2C215.6 165.1 218.3 166.8 219.9 168.1C221 169 224.1 175.2 226.4 184.4C228.8 193.7 230.4 206.2 228.3 219.4Z" fill="#0C60BC"></path><path d="M210.9 325.9C210.9 327.4 210.8 328.8 210.8 330.2C210.6 335 210.4 339.5 210.1 343.6C210.1 344.1 210 344.5 210 345C209.9 345.8 209.9 346.6 209.8 347.4C209.6 349 209.5 350.6 209.2 352.1C208.2 359.5 206.5 364.3 203.9 364.9C200 365.7 196.5 366.8 193.1 368C179.7 371 166.1 373 152.6 373.7C142.5 374.2 128.8 374.4 114.7 373.3C105 370.8 93.2999 363.1 85.8999 356.9C82.7999 354.3 82.4999 349.5 83.1999 344.2C83.1999 344.1 83.1999 344 83.1999 343.9C83.1999 343.9 83.1999 343.9 83.1999 343.8C83.2999 342.9 83.3999 342.1 83.5999 341.2C84.3999 336.5 85.5999 331.7 85.9999 327.7C86.0999 326.7 86.1999 325.7 86.1999 324.8C86.1999 298.7 72.1999 267 67.4999 241.6C66.5999 236.6 65.2999 230.6 63.8999 224.6L85.8999 193C89.3999 195.4 92.4999 227.5 92.4999 236.7C92.4999 253.7 88.4999 290.7 94.0999 306.1C100.2 304.4 108.3 304.9 114.8 306.2C111.4 307.7 101.4 308.3 97.1999 312.5C102.3 313.4 108.4 315.3 112.3 317.9C107.6 317.6 102.6 318.4 98.3999 319.4C96.9999 322.1 96.4999 325.8 97.2999 328.9C134.4 337.6 175.7 339.2 210.9 325.9Z" fill="#1B3572"></path><path d="M192.2 70.9008C205.3 60.7008 201.7 88.2008 197.2 94.7008C193.8 99.5008 190.6 97.9008 189.1 91.1008C187.9 85.7008 189.1 73.3008 192.2 70.9008Z" fill="#E8A273"></path><path d="M191.8 75.5015C192.8 73.4015 194.7 71.0015 196.7 71.9015C199.1 73.0015 199.1 77.4015 198.4 80.0015C198.7 77.8015 198.4 74.0015 196.3 74.0015C194.7 74.0015 193.5 77.0015 192.5 78.4015C195 79.3015 196.5 83.6015 196 87.0015C195.4 91.5015 192.7 91.1015 190.4 89.4015C190.4 89.4015 190.5 89.3015 190.7 89.5015C192.6 88.2015 193.8 85.5015 192.3 82.6014C191.6 81.2014 190.9 81.3015 190.8 79.5015C190.7 78.1015 191.3 76.4015 191.8 75.5015Z" fill="#C87E53"></path><path d="M189 152.9C159.9 193.5 106.1 147.2 106.1 147.2C106.1 147.2 116.4 142.8 119.6 134.4C121.5 129.4 123.2 126.9 124.1 121.2C124.5 118.5 124.8 115.8 124.9 113.2C125.2 107.4 127.9 89.7004 124.9 86.4004L177.4 103.9C176.2 112.8 174.2 123 175.2 132.3C175.4 134.5 176.1 137.4 177.2 140.3C179.9 147.7 185.6 150.5 189 152.9Z" fill="#E8A273"></path><path d="M175.2 132.201C175.4 134.401 176.1 137.301 177.2 140.201C175.8 141.301 174.3 142.301 172.7 143.001C151 153.201 133 139.301 124.2 121.101C124.6 118.401 124.9 115.701 125 113.101C125.3 107.301 128 89.6008 125 86.3008L177.5 103.801C176.3 112.701 174.2 122.901 175.2 132.201Z" fill="#C87E53"></path><path d="M186.3 41.4016L185.6 41.8016C192 41.9016 194.2 55.5016 194.4 60.0016C194.7 67.4016 194.7 75.0016 194.7 82.5016C196.6 72.9016 209.6 34.9016 186.3 41.4016Z" fill="#4C3431"></path><path d="M191.7 124.602C183.9 134.102 166.5 137.502 154.1 133.102C149.3 131.402 144.2 128.202 139.6 124.602C136.3 122.002 133.2 119.102 130.7 116.402C123.4 108.402 125 93.6015 125 83.4015C125 76.3015 129.2 51.1015 124.3 47.7015L141.8 35.3015C145.8 32.7015 149.7 31.0015 154.2 29.6015C163.6 26.8015 178.1 24.8015 186.9 30.3015C196.6 36.5015 196 84.0015 194.2 95.8015C194 97.1015 193.9 98.5015 193.9 99.7015C193.9 109.002 198.3 116.502 191.7 124.602Z" fill="#E8A273"></path><path d="M189.7 26.2018C183.7 20.8018 174.1 17.5018 166.5 17.9018C152.8 18.6018 132 23.2018 122.2 32.1018C122.2 32.1018 109.5 43.0018 125.8 88.4018C132.4 80.2018 135 62.0018 135.6 50.9018C145.2 45.1018 150.6 40.5018 161.5 39.3018C167.6 38.6018 173.7 38.7018 179.7 39.7018C184.8 40.5018 193.2 44.0018 194.3 50.2018C195.4 43.7018 195.1 31.1018 189.7 26.2018Z" fill="#4C3431"></path><path d="M123.1 71.7004C105.4 58.8004 109.4 88.4004 115.3 95.9004C119.8 101.5 124.3 100.3 126.6 93.5004C128.5 88.0004 127.3 74.7004 123.1 71.7004Z" fill="#E8A273"></path><path d="M123.6 76.5006C122.3 74.1006 119.7 71.3006 117 71.9006C113.6 72.7006 113.5 77.3006 114.3 80.2006C114 77.8006 114.5 73.9006 117.4 74.2006C119.6 74.5006 121.1 77.8006 122.4 79.4006C119 79.9006 116.7 84.2006 117.3 87.9006C118 92.7006 121.7 92.8006 124.8 91.4006C124.8 91.4006 124.7 91.3006 124.4 91.4006C121.8 89.8006 120.3 86.7006 122.4 83.8006C123.4 82.4006 124.4 82.7006 124.6 80.7006C124.9 79.5006 124.1 77.6006 123.6 76.5006Z" fill="#C87E53"></path><path d="M195.3 30.2009C190.2 29.3009 184.6 30.0009 178.9 32.8009C178.3 33.1009 177.6 33.5009 176.9 33.9009L174 34.2009L173.5 34.3009L146 43.1009C140.6 45.9009 135.1 48.9009 130.2 52.9009C130.1 53.0009 129.9 53.1009 129.8 53.3009C126.2 56.2009 120.4 63.6009 119.4 67.5009C116.9 62.0009 116.1 52.9009 115.5 46.5009C114.9 40.3009 114.9 32.7009 116.9 26.6009C118.1 22.9009 122.5 17.2009 128.8 12.1009C144.2 -0.499099 171 -9.8991 189.9 19.8009C190.6 20.8009 191.2 21.9009 191.9 23.1009C192.2 23.6009 192.5 24.2009 192.8 24.8009C193.5 26.4009 194.4 28.3009 195.3 30.2009Z" fill="#0C60BC"></path><path d="M187.1 34.5008L167 32.3008C163 34.7008 159.1 40.8008 154.2 43.6008C149.9 46.0008 144.7 46.8008 140.5 48.7008C144.1 51.2008 153.1 49.3008 157.2 48.3008C161.9 47.1008 167.7 45.0008 171.4 41.9008C170.1 47.9008 165 52.2008 160.2 55.2008C165.7 54.6008 172.6 51.6008 177.3 48.3008C180.4 46.0008 188.7 38.6008 187.1 34.5008Z" fill="#4C3431"></path><path d="M216.6 56.2999C216.6 57.6999 216.5 58.9999 216.1 60.1999H216C212.4 62.1999 208.1 64.7999 199.1 59.1999C198.5 51.9999 195.6 42.9999 183 39.5999C181.7 39.2999 180.4 38.9999 179.2 38.6999C169 36.6999 160.6 37.8999 152.6 38.1999L169.4 31.7999C172.9 30.8999 176.8 29.9999 180.9 29.2999C184 28.7999 190.7 28.9999 193.8 29.7999C204.4 32.6999 214.2 43.3999 216.6 56.2999Z" fill="#1B3572"></path><path d="M191.7 124.6C183.9 134.1 166.5 137.5 154.1 133.1C149.3 131.4 144.2 128.2 139.6 124.6C138.5 122.8 137.6 120.8 136.9 118.7C135.1 113.3 130.7 102.1 141.8 98.7C146.1 97.4 172.8 92.7 193.8 99.7C193.9 109 198.3 116.5 191.7 124.6Z" fill="#705250"></path><path d="M139.9 65.2004C140.5 62.6004 141.9 61.7004 145.2 61.5004C150.1 61.1004 158.7 60.4004 161.4 62.4004C162.3 66.0004 159.5 71.3004 157.8 71.3004C156.5 70.8004 147.3 66.3004 145.3 66.6004C143.3 67.0004 140.2 68.3004 139.7 70.7004C139.2 69.0004 139.4 66.9004 139.9 65.2004Z" fill="#382523"></path><path d="M185.6 68.401C179.3 69.001 177.3 72.601 175.5 78.201C175.5 78.201 182.1 81.401 192.2 78.501C192.4 73.101 190 68.001 185.6 68.401Z" fill="#C87E53"></path><path d="M192.3 78.5016C191 78.9016 189.8 79.1016 188.7 79.3016C188.2 79.4016 187.7 79.5016 187.2 79.5016C185 79.8016 183 79.7016 181.4 79.6016C180.6 79.5016 179.8 79.4016 179.1 79.3016C176.8 78.8016 175.5 78.2016 175.5 78.2016C176.3 76.9016 177.2 75.5016 178.3 74.3016C178.6 74.0016 178.9 73.6016 179.2 73.3016C180.8 71.7016 182.8 70.6016 185.3 70.7016C185.7 70.7016 186 70.8016 186.4 70.8016C188.2 71.2016 189.6 72.3016 190.5 73.7016C191.5 75.2016 192 76.9016 192.3 78.5016Z" fill="white"></path><path d="M187.2 79.5016C185 79.8016 183 79.7016 181.4 79.6016C180.6 79.5016 179.8 79.4016 179.1 79.3016C178.7 77.8016 178.4 76.1016 178.4 74.3016C178.7 74.0016 179 73.6016 179.3 73.3016C180.9 71.7016 182.9 70.6016 185.4 70.7016C185.8 70.7016 186.1 70.8016 186.5 70.8016C188.8 72.3016 187.7 77.9016 187.2 79.5016Z" fill="#4C1710"></path><path d="M186.3 75.2012C186.3 76.3012 185.8 77.2012 185.3 77.2012C184.7 77.2012 184.3 76.3012 184.3 75.2012C184.3 74.1012 184.8 73.2012 185.3 73.2012C185.9 73.3012 186.3 74.1012 186.3 75.2012Z" fill="white"></path><path d="M148.1 67.6006C154.9 68.2006 157.1 72.2006 159.1 78.3006C159.1 78.3006 152 81.8006 140.9 78.6006C140.8 72.7006 143.4 67.2006 148.1 67.6006Z" fill="#C87E53"></path><path d="M159.1 78.3003C159.1 78.3003 157.7 79.0003 155.2 79.5003C154.5 79.6003 153.6 79.8003 152.7 79.9003C152.7 79.9003 152.7 79.9003 152.6 79.9003C150.8 80.1003 148.7 80.1003 146.3 79.8003C145.8 79.7003 145.3 79.7003 144.7 79.6003C144.3 79.5003 143.8 79.4003 143.4 79.3003C142.6 79.1003 141.7 78.9003 140.8 78.7003C141.1 77.0003 141.7 75.1003 142.7 73.5003C142.8 73.4003 142.8 73.3003 142.9 73.2003C143.9 71.8003 145.3 70.7003 147.2 70.3003C147.6 70.2003 147.9 70.2003 148.3 70.2003C150.2 70.1003 151.8 70.7003 153.2 71.6003C153.8 72.0003 154.4 72.5003 155 73.0003C155.3 73.3003 155.7 73.7003 156 74.0003C157.2 75.4003 158.2 76.9003 159.1 78.3003Z" fill="white"></path><path d="M153.4 72.4007C153.4 75.1007 153.1 77.6007 152.7 79.8007C150.9 80.0007 148.8 80.0007 146.4 79.7007C145.9 79.6007 145.4 79.6007 144.8 79.5007C144.4 79.4007 143.9 79.3007 143.5 79.2007C143.2 77.6007 143 75.3007 143 73.1007C144 71.7007 145.4 70.6007 147.3 70.2007C147.7 70.1007 148 70.1007 148.4 70.1007C150.3 70.0007 151.9 70.6007 153.3 71.5007C153.3 71.9007 153.3 72.2007 153.4 72.4007Z" fill="#4C1710"></path><path d="M144.5 75.5008C144.5 76.7008 145 77.7008 145.6 77.7008C146.2 77.7008 146.7 76.7008 146.7 75.5008C146.7 74.3008 146.2 73.3008 145.6 73.3008C145 73.3008 144.5 74.3008 144.5 75.5008Z" fill="white"></path><path d="M176.3 93.1008C174.7 90.7008 173 78.6008 172.3 76.3008C172.3 76.3008 170.1 88.5008 170.4 93.6008C168.5 93.9008 165.8 93.6008 164.1 94.4008C166.7 98.7008 180.7 99.5008 176.3 93.1008Z" fill="#C87E53"></path><path d="M193.7 61.6016C192.7 59.2016 191.4 58.5016 188.6 58.8016C184.4 59.2016 177.1 59.8016 175.2 62.2016C175.1 65.9016 178.4 70.6016 179.8 70.4016C180.8 69.7016 187.7 63.8016 189.4 63.9016C191.1 63.9016 194 64.8016 194.9 67.0016C194.9 65.3016 194.3 63.3016 193.7 61.6016Z" fill="#382523"></path><path d="M187.8 103.401C186.1 107.001 183.8 110.501 180.9 113.201C178 115.901 174.6 117.901 170.7 118.601C166.4 119.301 159.9 117.601 156.3 114.701C153.2 112.201 150.5 102.501 150.5 102.201L150.8 102.501C154.2 104.801 171.2 105.601 181.3 104.701C184.2 104.301 186.5 103.901 187.8 103.401Z" fill="#C87E53"></path><path d="M180 111.101C180.2 111.801 180.4 112.501 180.9 113.201C178 115.901 174.6 117.901 170.7 118.601C166.4 119.301 159.9 117.701 156.3 114.701C150.7 110.101 150.5 102.501 150.5 102.201L150.8 102.501C154.2 104.801 171.2 105.601 181.3 104.701C180.7 105.801 180.3 106.901 180 108.001C179.8 109.001 179.8 110.001 180 111.101Z" fill="white"></path><path d="M180 111.102C173.4 111.902 159.7 111.502 154.9 106.502C157.5 107.602 170.3 109.802 180 107.902C179.8 109.002 179.8 110.002 180 111.102Z" fill="#EAD9D8"></path><path d="M196.3 32.1016C190 34.2016 180 30.3016 174 34.3016L173.5 34.4016L146 43.1016C140.6 45.9016 135.1 48.9016 130.2 52.9016C130.1 53.0016 129.9 53.1016 129.8 53.3016C126.2 56.2016 120.4 63.6016 119.4 67.5016C116.9 62.0016 116.1 52.9016 115.5 46.5016C114.9 40.3016 114.9 32.7016 116.9 26.6016C118.1 22.9016 122.5 17.2016 128.8 12.1016C127 18.5016 124.1 33.8016 130.5 38.0016C135.2 41.1016 150.3 30.7016 155.6 28.3016C164 24.5016 172.7 21.5016 181.7 20.3016C184.2 20.0016 187 19.8016 189.8 19.9016C190.5 20.9016 191.1 22.0016 191.8 23.2016C192 23.6016 196 31.5016 196.3 32.1016Z" fill="#1B3572"></path><path d="M216.6 56.3015C216.6 57.7015 216.5 59.0015 216.1 60.2015H216C213.6 48.3015 206 39.9015 196.1 37.5015C191.1 36.3015 185.4 36.5015 179.6 38.6015C179.4 38.7015 179.3 38.7015 179.1 38.8015C178.6 39.0015 178.1 39.2015 177.5 39.5015C163.7 46.0015 141 71.6015 129.7 53.0015C130.6 52.1015 141.9 39.2015 169.3 31.9015C172.8 31.0015 176.7 30.1015 180.8 29.4015C183.9 28.9015 190.6 29.1015 193.7 29.9015C204.4 32.7015 214.2 43.4015 216.6 56.3015Z" fill="#0A64D4"></path><path d="M262.5 273.6C262.3 273.2 262.1 272.9 261.8 272.5C249.5 272.3 215.9 286.5 208.5 299.6C207 295.3 205.9 288.4 204.9 281C202.8 265.8 200.8 248.1 195.5 243.3L211.9 164.5C234.8 173.1 237.6 187.4 241.1 194.1C245.8 202.9 248.1 212.8 250.1 222.4C253.1 236.8 255.4 256 260.6 269.3C261.2 270.8 261.8 272.2 262.5 273.6Z" fill="#0C60BC"></path><path d="M262.5 273.6C262.3 273.2 262.1 272.9 261.8 272.5C249.5 272.3 215.9 286.5 208.5 299.6C207 295.3 205.9 288.4 204.9 281L226 195C236.6 216.9 218.4 253.5 232.1 273.6C240.8 268.7 250.8 268.3 260.5 269.2C261.2 270.8 261.8 272.2 262.5 273.6Z" fill="#1B3572"></path><path d="M89.1999 209.4C88.8999 212.7 88.4999 215.9 87.9999 219C83.8999 240.9 76.7999 276.3 69.7999 289C42.5999 279.8 12.1999 256.9 11.8999 257.2C14.5999 253.4 17.0999 248.8 19.3999 243.7C24.6999 231.8 28.9999 217.6 33.2999 206.5C36.8999 197 40.9999 187.2 47.4999 178.9C52.3999 172.6 57.5999 158.4 83.8999 152.9C83.7999 152.9 91.2999 182.6 89.1999 209.4Z" fill="#0C60BC"></path><path d="M89.1999 209.4C88.8999 212.7 88.4999 215.9 87.9999 219C83.8999 240.9 76.7999 276.3 69.7999 289C42.5999 279.8 12.1999 256.9 11.8999 257.2C14.5999 253.4 17.0999 248.8 19.3999 243.7C22.0999 249.1 24.6999 254.9 30.3999 258.6C38.8999 264.2 51.5999 272 61.7999 273C80.9999 274.9 85.2999 227.5 88.1999 213.9C88.3999 212.3 88.7999 210.9 89.1999 209.4Z" fill="#1B3572"></path><path d="M93.7 594.499H93.8C93.8 594.399 93.7 594.399 93.7 594.499C93.1 594.499 93.1 594.399 93.7 594.499Z" fill="#991027"></path><path d="M59.6999 762.999C36.9999 764.199 25.5999 764.799 7.09987 762.599C6.49987 760.699 7.19987 756.099 9.69987 752.099C11.8999 748.599 15.4999 745.599 20.8999 745.599C25.8999 745.599 29.9999 744.299 33.3999 742.399C43.1999 736.699 45.9999 725.299 44.7999 723.299L53.6999 737.099C53.5999 742.899 60.0999 755.299 59.6999 762.999Z" fill="#2B3238"></path><path d="M50.3997 752.399C41.4997 751.299 33.5997 748.799 24.0997 749.599C19.7997 749.999 15.6997 749.999 11.5997 751.299C10.8997 751.499 10.2997 751.799 9.69971 751.999C11.8997 748.499 15.4997 745.499 20.8997 745.499C25.8997 745.499 29.9997 744.199 33.3997 742.299C33.9997 742.499 34.4997 742.699 35.0997 742.899C39.3997 744.899 48.4997 747.599 50.3997 752.399Z" fill="#191E21"></path><path d="M179.7 762.999C202.4 764.199 213.8 764.799 232.3 762.599C232.9 760.699 232.2 756.099 229.7 752.099C227.5 748.599 223.9 745.599 218.5 745.599C213.5 745.599 209.4 744.299 206 742.399C196.2 736.699 193.4 725.299 194.6 723.299L185.7 737.099C185.8 742.899 179.3 755.299 179.7 762.999Z" fill="#2B3238"></path><path d="M189.1 752.399C198 751.299 205.9 748.799 215.4 749.599C219.7 749.999 223.8 749.999 227.9 751.299C228.6 751.499 229.2 751.799 229.8 751.999C227.6 748.499 224 745.499 218.6 745.499C213.6 745.499 209.5 744.199 206.1 742.299C205.5 742.499 205 742.699 204.4 742.899C200 744.899 190.9 747.599 189.1 752.399Z" fill="#191E21"></path><path d="M166.9 349.8C166.9 351.1 166.9 352.4 166.9 353.7C166.9 356 166.9 358.3 166.8 360.6C166.7 362.8 166.7 364.9 166.5 367.2C166.2 372.4 165.5 378 164.4 384.4C164 386.6 163.5 388.7 163 390.6C162.9 390.8 162.9 391.1 162.8 391.3C159.4 403.3 153.7 411.3 149.6 423.9C149.4 424.6 149.2 425.3 148.9 426C148.6 427.1 148.2 428.4 147.7 429.7C146.9 432.2 145.9 435 144.8 438C144.1 440 143.3 442.2 142.4 444.4C140.1 450.4 137.6 457.2 134.8 464.4C117.7 508.8 93.5997 570.1 100.2 587.8C105.9 603.1 100.4 628.1 91.5997 653.3C90.3997 656.8 89.0997 660.3 87.6997 663.8C87.1997 665 86.7997 666.1 86.2997 667.3C86.0997 667.9 85.7997 668.5 85.5997 669C85.1997 670 84.7997 671 84.3997 672C84.2997 672.3 84.0997 672.7 83.9997 673C83.5997 674 83.1997 675 82.7997 675.9C82.5997 676.5 82.2997 677 82.0997 677.6C81.5997 678.7 81.0997 679.9 80.6997 681C74.8997 694.5 68.9997 706.9 64.1997 716.8C63.9997 717.2 63.7997 717.6 63.5997 718C63.3997 718.4 63.1997 718.8 62.9997 719.2C62.7997 719.6 62.5997 720 62.3997 720.4C62.1997 720.8 61.9997 721.2 61.7997 721.5C61.4997 722.1 61.2997 722.6 60.9997 723.1C60.8997 723.3 60.7997 723.5 60.6997 723.6C60.4997 724 60.3997 724.3 60.1997 724.6C60.0997 724.8 59.9997 724.9 59.9997 725.1C59.6997 725.8 59.3997 726.4 59.0997 727.1C58.9997 727.4 58.7997 727.7 58.6997 728C58.5997 728.2 58.5997 728.3 58.4997 728.5C58.3997 728.8 58.1997 729.1 58.0997 729.4C57.9997 729.5 57.9997 729.7 57.8997 729.8C57.7997 730.1 57.5997 730.4 57.4997 730.6C57.3997 730.7 57.3997 730.9 57.2997 731C57.1997 731.3 57.0997 731.5 56.8997 731.8C56.7997 732 56.6997 732.3 56.5997 732.5C56.2997 733.2 55.9997 733.9 55.6997 734.4C55.5997 734.7 55.4997 735 55.2997 735.2C55.1997 735.4 55.1997 735.5 55.0997 735.7C54.9997 735.9 54.9997 736 54.8997 736.2C54.7997 736.4 54.6997 736.6 54.6997 736.8C54.5997 736.8 54.3997 736.8 54.2997 736.8C54.1997 736.8 54.0997 736.8 53.9997 736.8C53.8997 736.8 53.8997 736.8 53.7997 736.8C53.5997 736.8 53.2997 736.8 52.9997 736.8C52.8997 736.8 52.7997 736.8 52.6997 736.8C52.0997 736.8 51.3997 736.7 50.5997 736.7C50.4997 736.7 50.3997 736.7 50.3997 736.7C49.5997 736.6 48.6997 736.6 47.7997 736.5C47.4997 736.5 47.1997 736.4 46.9997 736.4C46.3997 736.3 45.7997 736.3 45.1997 736.2C44.9997 736.2 44.7997 736.1 44.5997 736.1C44.1997 736 43.6997 736 43.2997 735.9C43.1997 735.9 42.9997 735.9 42.8997 735.8C42.7997 735.8 42.6997 735.8 42.5997 735.8C42.3997 735.8 42.1997 735.7 41.8997 735.7C41.7997 735.7 41.7997 735.7 41.6997 735.7C41.4997 735.7 41.3997 735.6 41.1997 735.6C40.8997 735.6 40.6997 735.5 40.4997 735.5C39.9997 735.4 39.4997 735.3 39.0997 735.2C38.9997 735.2 38.8997 735.2 38.8997 735.1C38.8997 735.1 38.8997 735.1 38.7997 735.1C38.6997 735.1 38.4997 735 38.3997 735C38.2997 735 38.0997 734.9 37.9997 734.9C37.7997 734.8 37.5997 734.8 37.4997 734.7C36.2997 729.6 35.3997 701.7 36.2997 671.3C36.2997 670 36.3997 668.7 36.3997 667.4C36.4997 665.2 36.5997 663 36.6997 660.8C36.7997 659 36.8997 657.3 36.9997 655.5C36.9997 654.6 37.0997 653.7 37.0997 652.9C37.1997 652 37.1997 651.1 37.2997 650.3C37.3997 649.4 37.3997 648.5 37.4997 647.7C37.5997 646.8 37.5997 646 37.6997 645.1C37.7997 644.2 37.7997 643.4 37.8997 642.5C37.9997 641.6 37.9997 640.8 38.0997 639.9C38.1997 638.6 38.2997 637.3 38.3997 636.1C38.4997 635.3 38.4997 634.4 38.5997 633.6C38.7997 631.9 38.8997 630.3 39.0997 628.7C39.5997 624.2 40.0997 620 40.6997 615.9C42.2997 605.1 44.3997 596.1 47.1997 590.6C48.6997 587.5 49.9997 584.6 51.0997 581.6C51.1997 581.5 51.1997 581.3 51.2997 581.1C52.0997 579 52.7997 576.9 53.4997 574.9C54.0997 573 54.6997 571.1 55.0997 569.2C55.7997 566.6 56.3997 564 56.8997 561.4C57.4997 558.2 58.0997 555 58.5997 551.8C59.7997 544 60.7997 535.9 62.1997 526.8C66.1997 502.3 69.3997 451.2 72.3997 418.4C72.5997 416 72.8997 413.6 73.0997 411.4C73.1997 410.8 73.1997 410.2 73.2997 409.7C73.6997 406.1 74.0997 402.8 74.3997 400C74.5997 398.6 74.7997 397.4 74.8997 396.2C74.9997 395.8 74.9997 395.3 75.0997 394.9C76.2997 388 77.8997 373 79.6997 360.1C79.9997 357.9 80.2997 355.7 80.6997 353.6C81.3997 349.4 82.0997 345.7 82.7997 342.9H82.8997C87.9997 344.1 94.0997 345.2 100.9 346.2C105.1 346.8 109.6 347.3 114.3 347.8C114.4 347.4 114.5 346.9 114.6 346.5C115.6 342.5 116.7 337.7 117.9 332.2L131.3 334.2L132.5 334.4L139.6 332.6L145.2 331.2L149.4 330.1L149.6 330L153.5 329L166.9 325.6C166.9 326.8 166.8 327.9 166.8 329C166.8 330.8 166.7 332.6 166.7 334.4C166.7 334.5 166.7 334.5 166.7 334.6C166.7 336.2 166.7 337.7 166.7 339.2C166.8 342.8 166.8 346.3 166.9 349.8Z" fill="#E01235"></path><path d="M91.6997 653.2C78.4997 690.7 57.6997 728.8 54.8997 736.9C51.4997 737.2 40.7997 735.9 37.6997 734.8C35.6997 726.4 34.5997 657.4 40.7997 615.9C40.9997 619.2 41.3997 622.3 41.9997 625C47.1997 647 71.4997 659.1 91.6997 653.2Z" fill="#991027"></path><path d="M214.9 622.8C214.9 628.6 214.7 634.8 214.3 641.4C212 681.2 203.4 730.9 200.6 737.6C200.2 737.7 199.6 737.7 198.9 737.8C195.1 738.1 187.9 737.9 184.3 737.4C183.9 737.3 183.5 737.3 183.2 737.2C181.5 729.1 166.6 689.5 159 651.6C153.9 626.1 152.6 601.6 160 587.4C172.6 562.9 158.1 496.3 145.3 440.3C145.1 439.5 145 438.8 144.8 438.1C137.2 404.8 130.5 375.5 130.8 361.4C131.2 342 128.7 351.9 131.2 334.7V334.6C131.2 334.5 131.2 334.5 131.2 334.4C131.6 331.8 131.9 329.1 132.3 326.1L145.1 331.3H145.2L148.8 332.8L158.3 336.7L165.1 339.4H166.7L207.9 338.2C205.6 340.5 212 348.3 212.7 352.9C212.9 354.3 213.1 356.1 213.2 358.2C214 371.7 212.7 396.5 212.9 405.9C212.9 406.3 212.9 406.7 212.9 407.2C212.9 408.3 212.9 409.6 212.9 410.9C212.9 411.2 212.9 411.6 212.9 411.9C212.9 414.4 212.8 417.3 212.6 420.4C212.5 423.1 212.3 425.9 212.2 428.9C210.5 460.9 206.2 510.5 206.5 534.6C206.6 543.5 206.4 551.5 206.4 559.1C206.4 562.3 206.5 565.5 206.7 568.6C206.8 571.2 207 573.7 207.3 576.3C207.4 577.4 207.6 578.5 207.7 579.5C208 581.8 208.4 584.2 209 586.6C209.2 587.3 209.3 588 209.5 588.8C210.2 591.8 211.1 594.8 212.1 598C214.1 603.2 214.9 612.1 214.9 622.8Z" fill="#E01235"></path><path d="M127.8 231.6C129.2 266.8 123.4 305.8 118.2 331.1C118.1 331.5 114 349.1 113.8 349.7C112.4 354.8 111.4 357.8 110.9 358L117.7 358.3L119.6 358.4L166.8 360.5L173.5 360.8L211 362.5C210.9 362.4 211.1 361.8 211.3 360.9C211.4 360.5 211.6 360 211.7 359.5C212.1 358.2 212.7 356.6 213.3 354.7C214.3 351.7 225.7 321 229.1 225.1C184.6 221.4 132.9 230.4 127.8 231.6Z" fill="#E01235"></path><path d="M213.8 362.999C213.6 362.999 213.3 363.099 213.1 363.099C212.4 363.199 211.7 363.299 211.1 363.399C198.2 365.499 184.3 366.499 172.1 366.899C170.2 366.999 168.4 366.999 166.6 367.099C163 367.199 159.6 367.199 156.4 367.199C151.7 367.199 147.7 367.099 144.4 366.999C136.5 366.799 128 366.399 119.5 365.699C110.3 364.999 101 363.899 92.5997 362.499C88.0997 361.799 83.7997 360.899 79.8997 359.999C79.6997 359.999 79.5997 359.899 79.3997 359.899C79.2997 359.899 79.1997 359.899 79.1997 359.799C79.1997 359.699 79.1997 359.599 79.1997 359.399L79.8997 356.699C80.6997 351.899 81.8997 346.799 82.3997 342.699C82.5997 342.699 82.7997 342.799 82.9997 342.799H83.0997C88.1997 343.999 94.2997 345.099 101.1 346.099C105.3 346.699 109.8 347.199 114.5 347.699C130.7 349.299 149.2 349.999 167.1 349.599C183.5 349.199 199.3 347.899 212.4 345.499C212.4 345.499 212.4 345.499 212.5 345.499C212.7 345.499 212.9 345.399 213.1 345.399C214.5 345.099 215.8 344.899 217.1 344.599C215.6 348.099 213.7 360.699 213.8 362.999Z" fill="#991027"></path><path d="M140.7 412.498C140.2 412.598 139.7 412.698 139.2 412.798C139.7 412.798 140.2 412.698 140.7 412.498Z" fill="#991027"></path><path d="M163.8 409.799C162 410.899 159.9 411.699 157.7 412.299C155.9 412.799 154 413.199 152.1 413.499C149.4 413.999 146.8 414.299 144.3 414.799C146.8 414.199 149.9 412.999 152.5 411.499C154.6 410.299 156.4 408.899 157.6 407.499C158 406.999 158.4 406.399 158.6 405.899C159.9 402.699 159.8 373.199 160.2 355.599L164.2 354.799C165.8 371.499 164.5 402.399 163.8 409.799Z" fill="#991027"></path><path d="M214.4 641.399C212.1 681.199 203.5 730.899 200.7 737.599C200.3 737.699 199.7 737.699 199 737.799C195.2 738.099 188 737.899 184.4 737.399C184 737.299 183.6 737.299 183.3 737.199C181.6 729.099 166.7 689.499 159.1 651.599C154 626.099 152.7 601.599 160.1 587.399C172.7 562.899 158.2 496.299 145.4 440.299C147 436.199 149.6 424.599 152 413.699C152.1 412.999 152.3 412.299 152.5 411.699C154.6 410.499 156.4 409.099 157.6 407.699C157.6 409.299 157.6 410.899 157.7 412.599C157.9 424.999 158.7 438.699 159.9 445.299C162.2 457.899 164.4 470.599 166.5 483.199C168.5 495.299 169.8 507.599 171 519.699C172 529.699 175.4 572.799 171.1 572.999C168.8 592.799 157.7 606.699 168.6 626.799C178.9 645.299 197.7 647.999 214.4 641.399Z" fill="#991027"></path><path d="M209.1 586.199C198.9 586.799 187.1 583.799 180.8 577.699C188.3 580.899 199 581.199 207.9 579.199C208.2 581.399 208.6 583.799 209.1 586.199Z" fill="#991027"></path><path d="M75.4999 572.5C69.9999 577.8 60.4999 580.8 51.3999 581.1C52.1999 579 52.8999 576.9 53.5999 574.9C61.1999 575.8 69.3999 575.1 75.4999 572.5Z" fill="#991027"></path><path d="M102.3 406.199C96.7997 412.299 84.3997 412.899 73.1997 411.499C73.2997 410.899 73.2997 410.299 73.3997 409.799C73.7997 406.199 74.1997 402.899 74.4997 400.099C74.6997 398.699 74.8997 397.499 74.9997 396.299C75.0997 395.899 75.0997 395.399 75.1997 394.999C76.3997 388.099 77.9997 373.099 79.7997 360.199C80.0997 357.999 80.3997 355.799 80.7997 353.699L114.1 356.099C114.2 369.599 111.7 395.699 102.3 406.199Z" fill="#991027"></path><path d="M213 406.799C213 407.899 213 409.199 213 410.499C213 410.799 213 411.199 213 411.499C211.8 410.799 210.8 409.999 210 408.999C200.6 398.499 198.1 372.399 198.2 358.899L213.4 357.799C214.2 371.299 212.9 396.099 213.1 405.499C213 405.999 213 406.399 213 406.799Z" fill="#991027"></path><path d="M142.5 237.199H130.5C130.5 232.599 130.1 227.999 129.4 223.499C129.1 221.399 128.7 219.399 128.4 217.399C128.4 217.299 128.4 217.299 128.4 217.199C127.6 213.099 126.6 208.999 125.4 205.099C125.3 204.799 125.2 204.399 125.1 204.099C124.5 201.999 123.9 199.999 123.2 198.099C121.7 193.699 120.1 189.599 118.6 185.799C111.2 167.999 102.9 154.899 97.7998 148.599C104.7 147.199 109.7 146.399 109.9 145.199C109.9 145.199 110.1 145.199 110.4 145.199C116.3 153.499 123.6 166.099 129.8 181.099C131.5 185.199 133.3 189.899 134.9 194.899C135.5 196.699 136.1 198.499 136.6 200.399C136.7 200.699 136.8 201.099 136.9 201.399C138.1 205.399 139.1 209.599 140 213.899C140.1 214.199 140.1 214.399 140.2 214.699C140.6 216.599 140.9 218.599 141.2 220.599C141.9 226.199 142.4 231.699 142.5 237.199Z" fill="#E01235"></path><path d="M140.5 209.099C141.5 212.899 139.3 216.699 135.5 217.799L134 218.199C130.2 219.199 126.4 216.999 125.3 213.199L124.3 209.599C123.3 205.799 125.5 201.999 129.3 200.899L130.8 200.499C134.6 199.499 138.4 201.699 139.5 205.499L140.5 209.099Z" fill="#0B0E0F"></path><path d="M137 199.198C136.9 197.898 136.3 196.298 135.3 194.898L122.6 198.298C122.5 199.998 122.7 201.598 123.3 202.898C129.1 208.898 129.6 214.898 127.7 219.298C127.8 220.698 128.5 222.398 129.6 223.898L142.1 220.598C142.3 218.798 142 216.998 141.4 215.698C138.2 214.798 133.7 206.698 137 199.198Z" fill="#191E21"></path><path d="M226.6 196.9C226.6 197.3 226.6 197.6 226.6 198C226.5 202.2 226.2 206.5 225.8 210.9C225.8 211.2 225.7 211.4 225.7 211.7C225.5 213.7 225.2 215.6 224.9 217.6C224.1 223 222.9 228.4 221.3 233.7L209.8 230.1C211.1 225.7 212.1 221.2 212.9 216.7C213.2 214.7 213.5 212.6 213.7 210.6C213.7 210.5 213.7 210.5 213.7 210.4C214.2 206.2 214.4 202 214.5 198C214.5 197.6 214.5 197.3 214.5 196.9C214.5 194.8 214.5 192.7 214.5 190.6C214.4 185.9 214.2 181.5 213.8 177.5C213.4 172.4 212.7 167.5 212 163C215.5 164.9 218.2 166.6 219.8 167.9C220.9 168.8 224 175 226.3 184.2C226.4 186.4 226.5 188.7 226.5 191.1C226.6 193 226.6 194.9 226.6 196.9Z" fill="#E01235"></path><path d="M227.8 206.2C227.6 210.1 224.3 213.1 220.4 212.9L218.8 212.8C214.9 212.6 211.9 209.3 212.1 205.4L212.3 201.7C212.5 197.8 215.8 194.8 219.7 195L221.3 195.1C225.2 195.3 228.2 198.6 228 202.5L227.8 206.2Z" fill="#0B0E0F"></path><path d="M227.5 195.8C227.8 194.5 227.7 192.8 227.2 191.2L214 190.6C213.4 192.2 213.1 193.8 213.3 195.2C217 202.6 215.7 208.6 212.5 212.2C212.2 213.6 212.4 215.4 212.9 217.2L225.8 217.8C226.5 216.1 226.8 214.3 226.6 212.9C223.9 211 222.1 201.9 227.5 195.8Z" fill="#191E21"></path><path d="M148.8 243.298C150.6 246.498 150.1 296.498 148.5 304.498C156.8 306.798 195.9 306.298 200.2 306.098C204.7 305.898 213 261.998 213 243.698C213 242.798 213 241.798 213 240.898L148.8 243.298Z" fill="#991027"></path><path d="M153.6 245.598C155.2 247.298 154.8 274.398 153.3 278.798C157 277.998 200.4 277.098 204.2 276.998C208.1 276.898 209.6 255.798 209.6 245.898C209.6 245.398 209.6 244.898 209.6 244.398L153.6 245.598Z" fill="#E01235"></path><path d="M190.9 270.698C190.9 272.798 189.2 274.498 187.1 274.498C185 274.498 183.3 272.798 183.3 270.698C183.3 268.598 185 266.898 187.1 266.898C189.2 266.898 190.9 268.598 190.9 270.698Z" fill="#991027"></path><path d="M204.9 405.599C205.3 400.599 200.7 395.799 202.3 390.699L203.6 390.999C210.3 389.399 219.1 388.399 223.4 394.499C227.1 399.899 227.9 408.699 229.6 414.899C231.6 422.599 233.5 429.999 231.8 437.699C230.5 443.799 228.7 456.099 224.4 460.399C215.7 453.199 229.1 435.099 225.7 426.199C225.6 430.699 220.1 458.499 214.8 455.799C212.1 454.399 214.7 434.399 215.5 427.699C214.6 430.399 214.7 449.899 209.1 447.899C203.6 443.499 211.9 424.899 211.4 416.299C210.9 420.599 205.9 433.999 202.4 436.699C194.6 442.799 198.8 431.999 199.7 427.599C201.6 418.899 204.5 410.299 204.9 405.599Z" fill="#7C7976"></path><path d="M213.9 414.499C211.9 409.899 205.6 407.899 204.5 402.699L205.7 402.299C210.8 397.699 218.1 392.599 224.8 395.999C230.6 398.899 235.6 406.299 240 410.999C245.4 416.799 250.6 422.399 252.8 429.999C254.6 435.999 258.9 447.599 257.1 453.499C246 451.299 249.2 428.999 241.9 422.799C244 426.799 252.5 453.799 246.5 453.999C243.5 454.099 236.2 435.299 233.7 428.999C234.2 431.799 243.6 448.899 237.7 449.799C230.8 448.599 229.2 428.299 224.6 420.899C226.3 424.899 228.2 439.099 226.5 443.099C222.6 452.199 221.1 440.699 219.8 436.399C217.3 427.699 215.7 418.699 213.9 414.499Z" fill="#A3A09D"></path><path d="M22.9998 428.301L96.6998 463.001C99.8998 464.501 102.4 467.101 103.8 470.301C105.7 474.401 109.4 477.701 114.1 479.001C118.8 480.201 126.7 480.001 130.8 477.401C131.2 477.201 131.1 476.601 130.7 476.501L117 472.901C112.1 471.601 116.7 453.801 121.6 455.001L135.3 458.601C135.7 458.701 136 458.301 135.8 457.901C133.4 453.501 126.4 449.301 121.4 448.201C118.2 447.501 114.9 447.901 112 449.101C108.1 450.701 103.7 450.401 99.8998 448.701L30.8998 416.201C27.8998 414.801 25.5998 412.301 23.9998 409.401C22.4998 406.601 19.7998 404.401 16.4998 403.501C12.8998 402.601 6.89982 402.801 3.79982 404.701C3.49982 404.901 3.59982 405.301 3.89982 405.401L14.2998 408.101C18.0998 409.101 14.4998 422.701 10.7998 421.701L0.399817 419.001C0.0998166 418.901 -0.200183 419.301 -0.000183403 419.501C1.79982 422.801 7.09982 426.001 10.9998 426.801C12.3998 427.101 13.7998 427.101 15.1998 427.001C17.7998 426.601 20.5998 427.101 22.9998 428.301Z" fill="#ADADAD"></path><path d="M113.2 450.101C104.6 453.601 101.9 464.101 105.1 470.401C106.2 472.601 108.7 476.901 115.5 478.401C120 479.401 126.9 479.201 130.7 477.201C130.8 477.101 130.8 476.901 130.7 476.901L118 473.701C117.2 473.501 115.8 473.201 115.2 472.001C113.8 469.101 114 464.401 116.3 459.301C117.8 456.001 119 454.101 122.8 455.401L135.4 458.501C135.6 458.501 135.7 458.401 135.6 458.201C133 454.301 126.8 450.501 122.3 449.401C119.2 448.801 116.1 449.001 113.2 450.101Z" fill="#CFD0D1"></path><path d="M10.8997 426.2C16.4997 427.5 20.5997 425 22.7997 420.2C27.6997 409.7 19.0997 405.2 15.8997 404.6C12.6997 403.9 6.39971 403.9 3.39971 405.3C3.29971 405.4 3.29971 405.5 3.39971 405.6L13.8997 408.2C14.5997 408.4 15.1997 408.6 15.5997 409.3C16.6997 411.5 15.9997 416.1 14.5997 419.1C13.3997 421.7 11.8997 422.9 10.3997 422.4L0.399707 419.3C0.299707 419.3 0.199707 419.4 0.199707 419.5C2.29971 422.2 7.69971 425.5 10.8997 426.2Z" fill="#CFD0D1"></path><path d="M31.8999 427.801C30.1999 427.001 29.4999 425.101 30.2999 423.401C31.0999 421.701 32.9999 421.001 34.6999 421.801L96.6999 451.001C98.3999 451.801 99.0999 453.701 98.2999 455.401C97.4999 457.101 95.5999 457.801 93.8999 457.001L31.8999 427.801Z" fill="#CFD0D1"></path><path d="M84.2996 441.9C81.4996 441.8 78.6996 443.1 76.3996 439C76.2996 439.2 76.2996 439.4 76.1996 439.5C74.8996 443.7 75.4996 446.9 75.2996 450.2C75.2996 450.7 75.1996 451.2 75.1996 451.7C75.0996 452.3 74.8996 453 74.6996 453.7C66.2996 455.8 66.2996 451.1 66.8996 445.7C66.8996 445.9 66.7996 446.2 66.7996 446.4C66.7996 446.6 66.6996 446.9 66.6996 447.1C66.2996 450 66.1996 451.5 64.6996 454.4C60.2996 455.6 56.4996 454 56.0996 449.1C56.0996 449 56.0996 448.8 56.0996 448.7C56.0996 448.9 56.0996 449.1 56.0996 449.4C56.0996 449.5 56.0996 449.6 56.0996 449.7C56.0996 449.9 56.0996 450 56.0996 450.2C55.8996 452.7 54.9996 453.1 51.8996 452C50.2996 451.4 49.4996 450.5 48.9996 449.3C48.3996 447.8 48.3996 445.9 48.1996 444.2C48.1996 443.9 48.1996 443.7 48.0996 443.4C48.0996 443.5 48.0996 443.6 48.0996 443.7C48.1996 445.8 47.3996 446.9 45.4996 447.6C43.7996 448.2 42.4996 447.9 41.4996 446.9C40.3996 445.7 39.5996 443.6 39.0996 440.7C39.0996 440.5 38.9996 440.4 38.9996 440.2C38.5996 437.5 38.3996 434.9 38.4996 433.2C38.8996 426.6 40.1996 415.6 41.5996 410.1C42.8996 404.9 42.5996 403 43.1996 397.9L64.7996 402.4C67.1996 415.5 81.9996 425 83.9996 439.3C84.1996 440.3 84.2996 441.1 84.2996 441.9Z" fill="#E8A273"></path><path d="M84.0996 439.5C81.1996 439.6 76.2996 436.9 74.3996 436C71.9996 442.6 67.7996 447.5 65.0996 438.2C64.0996 446.2 56.4996 443.5 54.6996 437.6C54.0996 444.1 47.1996 441.9 45.9996 437.1C45.0996 440 42.0996 440.8 39.0996 440.3C39.0996 440.5 39.1996 440.6 39.1996 440.8C39.5996 443.1 40.4996 445.3 41.5996 447C43.1996 449.3 46.8996 450.2 48.9996 449.4C49.4996 450.6 50.2996 451.6 51.8996 452.1C54.8996 453.2 55.8996 452.8 56.0996 450.3C56.0996 450.1 56.0996 450 56.0996 449.8C56.0996 449.7 56.0996 449.6 56.0996 449.5C56.0996 449.3 56.0996 449.1 56.0996 448.8C56.0996 448.9 56.0996 449.1 56.0996 449.2C56.4996 454.2 60.2996 455.8 64.6996 454.5C66.1996 451.6 66.2996 450.1 66.6996 447.2C66.6996 447 66.7996 446.7 66.7996 446.5C66.7996 446.3 66.8996 446 66.8996 445.8C66.2996 451.3 66.1996 455.9 74.6996 453.8C74.9996 453.1 75.0996 452.5 75.1996 451.8C75.2996 451.3 75.2996 450.8 75.2996 450.3C75.2996 447.6 74.5996 444.7 76.1996 439.6C76.2996 439.4 76.2996 439.2 76.3996 439.1C78.6996 443.2 81.4996 441.9 84.2996 442C84.2996 441.1 84.1996 440.3 84.0996 439.5ZM48.1996 443.8C48.1996 443.7 48.1996 443.6 48.1996 443.5C48.1996 443.8 48.2996 444 48.2996 444.3C48.1996 444.1 48.1996 443.9 48.1996 443.8Z" fill="#C87E53"></path></g><defs><clipPath id="clip0_166_868"><rect width="354.8" height="764.1" fill="white"></rect></clipPath></defs></svg>